HIERARCHY
ROOT Hips
{
	OFFSET 0.00000 0.00000 0.00000
	CHANNELS 6 Xposition Yposition Zposition Yrotation Zrotation Xrotation 
	JOINT Lumbar
	{
		OFFSET 0 0 0
		CHANNELS 3 Zrotation Xrotation Yrotation
		JOINT Neck
		{
			OFFSET 0.00 0.2701 0.00
			CHANNELS 3 Zrotation Xrotation Yrotation
			End Site
			{
				OFFSET 0.00 0.1379 0.00
			}
		}
		JOINT RightShoulder
		{
			OFFSET 0.0119 0.2289 0.1181
			CHANNELS 3 Zrotation Xrotation Yrotation
			JOINT RightElbow
			{
				OFFSET 0.00 -0.1475 0.00
				CHANNELS 2 Zrotation Yrotation
				JOINT RightWrist
				{
					OFFSET 0.00 -0.1605 0.00
					CHANNELS 2 Zrotation Xrotation
					End Site
					{
						OFFSET 0.0040 -0.1068 0.0006
					}
				}
			}
		}
		JOINT LeftShoulder
		{
			OFFSET 0.0119 0.2289 -0.1181
			CHANNELS 3 Zrotation Xrotation Yrotation
			JOINT LeftElbow
			{
				OFFSET 0.00 -0.1475 0.00
				CHANNELS 2 Zrotation Yrotation
				JOINT LeftWrist
				{
					OFFSET 0.00 -0.1605 0.00
					CHANNELS 2 Zrotation Xrotation
					End Site
					{
						OFFSET 0.0040 -0.1068 -0.0006
					}
				}
			}
		}
	}
	JOINT RightHip
	{
		OFFSET 0.0316 -0.0424 0.0458
		CHANNELS 3 Zrotation Xrotation Yrotation
		JOINT RightKnee
		{
			OFFSET 0.00 -0.2438 0.00
			CHANNELS 1 Zrotation
			JOINT RightAnkle
			{
				OFFSET 0.00 -0.2449 0.00
				CHANNELS 3 Zrotation Xrotation Yrotation
				End Site
				{
					OFFSET 0.1237 -0.0542 0.0051
				}
			}
		}
	}
	JOINT LeftHip
	{
		OFFSET 0.0316 -0.0424 -0.0458
		CHANNELS 3 Zrotation Xrotation Yrotation
		JOINT LeftKnee
		{
			OFFSET 0.00 -0.2438 0.00
			CHANNELS 1 Zrotation
			JOINT LeftAnkle
			{
				OFFSET 0.00 -0.2449 0.00
				CHANNELS 3 Zrotation Xrotation Yrotation
				End Site
				{
					OFFSET 0.1237 -0.0542 -0.0051
				}
			}
		}
	}
}
MOTION
Frames: 32
Frame Time: 0.02
-0 0.57926 -0 178.05309 0 -4.55223 6.6048 4.7569 -1.61993 -24.94463 1.79976 2.42536 -43.71979 -72.59072 -81.29885 15.70114 52.38244 -40.60314 0.35821 11.24043 69.41143 83.59253 17.5464 -81.96176 -24.93677 2.99736 -3.45344 6.00916 -10.76888 -8.53069 1.36412 -3.94234 -9.81604 -3.21793 4.54718 6.85635 -8.09598 5.13575 5.13227 9.99265
0.0001 0.57926 3e-05 178.03772 0 -4.55967 6.59572 4.75115 -1.61641 -24.99904 1.80852 2.42638 -43.5148 -72.57166 -82.19428 16.04127 51.90916 -40.46132 0.40672 11.34876 69.404 83.47341 17.57072 -82.02961 -25.01569 3.00246 -3.45193 6.01324 -10.78 -8.51136 1.34279 -3.94714 -9.79227 -3.2111 4.54966 6.85563 -8.09503 5.13579 5.13228 9.99272
0.00019 0.57926 7e-05 178.02223 0 -4.56708 6.58659 4.74538 -1.61282 -25.05343 1.8172 2.42747 -43.30931 -72.55254 -83.08162 16.37832 51.43955 -40.31901 0.45488 11.45645 69.39657 83.35539 17.59468 -82.09745 -25.09435 3.00768 -3.45034 6.01728 -10.79088 -8.49213 1.32156 -3.95188 -9.76866 -3.20433 4.55212 6.85518 -8.09398 5.1358 5.13227 9.99274
0.00029 0.57926 0.0001 178.00601 0 -4.57441 6.57725 4.73942 -1.60879 -25.10782 1.82582 2.42909 -43.10039 -72.5331 -83.95003 16.70714 50.97829 -40.17245 0.50194 11.56287 69.38893 83.23982 17.6175 -82.16631 -25.17217 3.01378 -3.44854 6.02126 -10.80073 -8.47295 1.30047 -3.95643 -9.74543 -3.19782 4.55454 6.85591 -8.09247 5.13567 5.1322 9.99269
0.00039 0.57926 0.00013 177.99353 0 -4.58212 6.56913 4.73441 -1.60693 -25.16164 1.83499 2.42818 -42.91033 -72.51545 -84.92422 17.08043 50.4708 -40.04732 0.55457 11.67627 69.38221 83.11032 17.64643 -82.23026 -25.25377 3.01562 -3.44801 6.02558 -10.81583 -8.45334 1.27858 -3.96197 -9.72015 -3.19005 4.55718 6.85048 -8.09338 5.13629 5.13251 9.99315
0.00049 0.57926 0.00016 177.97324 0 -4.58904 6.55838 4.72742 -1.60056 -25.217 1.84283 2.43245 -42.6801 -72.49396 -85.66998 17.35869 50.06295 -39.87773 0.59554 11.77461 69.37369 83.01103 17.66237 -82.3042 -25.32774 3.02624 -3.44468 6.02918 -10.81992 -8.43477 1.25842 -3.9654 -9.69924 -3.18487 4.55936 6.85806 -8.08919 5.13532 5.13197 9.99245
0.00063 0.57926 0.00019 177.92912 0 -4.59378 6.54028 4.71443 -1.58038 -25.27516 1.84849 2.45297 -42.33188 -72.46139 -85.81641 17.3785 49.91656 -39.5696 0.60306 11.83458 69.35851 82.99004 17.64193 -82.41148 -25.37806 3.0643 -3.43412 6.03095 -10.7916 -8.41783 1.24269 -3.96293 -9.69042 -3.1877 4.56018 6.90328 -8.07 5.12974 5.1292 9.98912
0.00078 0.57927 0.00021 177.87746 0 -4.59772 6.51953 4.69955 -1.55584 -25.33524 1.85257 2.47839 -41.94384 -72.42495 -85.72829 17.30215 49.87231 -39.21895 0.59913 11.87901 69.34173 83.00021 17.60849 -82.52786 -25.42108 3.11071 -3.42064 6.03198 -10.75247 -8.40216 1.22878 -3.95834 -9.68601 -3.19298 4.56055 6.96135 -8.04582 5.12258 5.12555 9.98456
0.00093 0.57927 0.00023 177.83067 0 -4.60206 6.50001 4.68587 -1.53419 -25.39541 1.85637 2.50028 -41.57835 -72.3906 -85.72496 17.26659 49.79113 -38.89783 0.60117 11.92829 69.32685 82.99974 17.58127 -82.63658 -25.4693 3.15124 -3.40818 6.03329 -10.71958 -8.38672 1.21423 -3.95475 -9.67955 -3.19658 4.56119 7.01252 -8.02447 5.11627 5.12221 9.98014
0.00108 0.57928 0.00025 177.77786 0 -4.60628 6.48038 4.67071 -1.50881 -25.45136 1.86429 2.52757 -41.19476 -72.35504 -85.80662 17.24126 49.67332 -38.5344 0.59964 11.98614 69.30731 82.98541 17.55261 -82.76042 -25.51005 3.20048 -3.39705 6.03483 -10.68122 -8.36785 1.19881 -3.95099 -9.67325 -3.20259 4.56157 7.06827 -8.00069 5.10942 5.11924 9.97729
0.00123 0.57928 0.00028 177.7357 0 -4.61053 6.46038 4.65822 -1.49003 -25.51675 1.86339 2.54491 -40.83858 -72.32087 -85.6643 17.17434 49.65181 -38.24808 0.60322 12.02338 69.29675 83.00611 17.52404 -82.85457 -25.56402 3.23367 -3.38242 6.03571 -10.65154 -8.35645 1.18571 -3.94708 -9.66772 -3.20416 4.56235 7.1174 -7.98083 5.10331 5.1153 9.97113
0.00141 0.57929 0.00032 177.72575 0 -4.61524 6.43971 4.65349 -1.49164 -25.60613 1.83717 2.53232 -40.57346 -72.2935 -84.88348 16.99343 49.90984 -38.19291 0.62003 12.0002 69.31399 83.12605 17.49738 -82.86809 -25.66147 3.21958 -3.35898 6.03517 -10.64962 -8.36507 1.17799 -3.94324 -9.66277 -3.19291 4.5647 7.14631 -7.97261 5.09978 5.10869 9.95401
0.00159 0.5793 0.00036 177.72663 0 -4.61998 6.41882 4.65155 -1.49987 -25.7053 1.80238 2.50977 -40.33541 -72.26742 -83.89793 16.77772 50.25563 -38.2153 0.64283 11.95849 69.33964 83.27792 17.47158 -82.85096 -25.77152 3.18925 -3.33208 6.03395 -10.65662 -8.3812 1.17264 -3.93933 -9.6585 -3.17709 4.56739 7.16792 -7.96857 5.09702 5.10118 9.93395
0.00177 0.57931 0.00041 177.72189 0 -4.62459 6.39825 4.6484 -1.50433 -25.80098 1.77236 2.49261 -40.08229 -72.23928 -83.05931 16.59339 50.53388 -38.1971 0.66562 11.92964 69.35994 83.40902 17.44639 -82.84524 -25.87235 3.1669 -3.30667 6.03291 -10.65875 -8.39407 1.1666 -3.93544 -9.65423 -3.16335 4.56966 7.19207 -7.96287 5.09382 5.09422 9.9167
0.00195 0.57932 0.00045 177.71972 0 -4.62969 6.37668 4.64496 -1.51172 -25.89244 1.73855 2.472 -39.84282 -72.21672 -81.99276 16.34198 50.92588 -38.20015 0.67757 11.88021 69.38739 83.56917 17.41644 -82.84957 -25.98757 3.14216 -3.28154 6.0324 -10.66384 -8.40637 1.15901 -3.93147 -9.64886 -3.14972 4.57304 7.2199 -7.95598 5.09095 5.08659 9.89337
0.00213 0.57933 0.00049 177.71499 0 -4.63377 6.35715 4.6428 -1.51479 -25.99526 1.71067 2.4561 -39.57763 -72.18352 -81.34563 16.22077 51.10871 -38.1777 0.71241 11.87108 69.40105 83.67407 17.39685 -82.82669 -26.07602 3.11861 -3.25502 6.03063 -10.66519 -8.42158 1.15514 -3.92774 -9.64582 -3.13468 4.57422 7.23826 -7.95263 5.08762 5.08019 9.88179
0.00229 0.57934 0.00054 177.69952 0 -4.63498 6.34344 4.64352 -1.50298 -26.12476 1.70079 2.45607 -39.26471 -72.11462 -81.99447 16.49112 50.62507 -38.06598 0.81942 11.96479 69.38146 83.63355 17.40521 -82.72698 -26.0865 3.10102 -3.22563 6.0256 -10.65256 -8.44328 1.16136 -3.9242 -9.64983 -3.11743 4.56902 7.23107 -7.95798 5.08276 5.07728 9.90545
0.00245 0.57934 0.00059 177.68128 0 -4.63516 6.33176 4.64544 -1.48686 -26.26574 1.6973 2.46104 -38.91507 -72.03563 -83.05922 16.8907 49.94259 -37.9247 0.94709 12.10278 69.34589 83.53261 17.4241 -82.60295 -26.06987 3.08546 -3.19493 6.01932 -10.63608 -8.46761 1.1712 -3.92099 -9.65608 -3.09879 4.56164 7.21472 -7.9668 5.07749 5.07569 9.94072
0.00262 0.57934 0.00064 177.66509 0 -4.63582 6.31907 4.64682 -1.47359 -26.40304 1.69119 2.46335 -38.56851 -71.96587 -83.87473 17.21502 49.39146 -37.7989 1.05888 12.22841 69.31384 83.45029 17.43859 -82.49561 -26.06624 3.06974 -3.16481 6.01359 -10.62253 -8.49052 1.17907 -3.91794 -9.6607 -3.08046 4.55543 7.20335 -7.97405 5.07245 5.07359 9.96917
0.00277 0.57935 0.00069 177.64612 0 -4.63641 6.30676 4.64831 -1.45679 -26.53439 1.68349 2.4668 -38.29879 -71.87859 -84.92919 17.60414 48.65957 -37.67297 1.19944 12.31831 69.30013 83.4095 17.45158 -82.36202 -26.05994 3.05005 -3.13473 6.0079 -10.60476 -8.51453 1.18823 -3.91358 -9.66765 -3.06342 4.5485 7.18845 -7.98132 5.06712 5.07104 10.00368
0.00295 0.57935 0.00074 177.6319 0 -4.63691 6.29411 4.64979 -1.44625 -26.68047 1.68085 2.4694 -37.83677 -71.82283 -85.59746 17.89411 48.26941 -37.53199 1.28344 12.49626 69.24151 83.26357 17.47004 -82.27948 -26.0529 3.03958 -3.10416 6.00185 -10.59418 -8.5369 1.19571 -3.91205 -9.67059 -3.04332 4.54253 7.17858 -7.98942 5.06243 5.0698 10.0288
0.00318 0.57935 0.0008 177.63358 0 -4.63739 6.28011 4.6513 -1.45357 -26.8664 1.68957 2.46668 -37.05487 -71.87668 -85.00535 17.8373 48.75522 -37.41926 1.2183 12.88319 69.08484 82.87248 17.50225 -82.33035 -26.04715 3.05199 -3.07372 5.99485 -10.60938 -8.55319 1.19625 -3.9179 -9.65915 -3.01568 4.53986 7.1869 -7.99824 5.05844 5.0715 10.02152
0.00343 0.57934 0.00087 177.63974 0 -4.6378 6.26559 4.65271 -1.4673 -27.06614 1.7033 2.46328 -36.04561 -71.95765 -84.02334 17.68285 49.61339 -37.28066 1.09298 13.36234 68.87821 82.3701 17.53923 -82.43707 -26.04179 3.07422 -3.04259 5.98756 -10.63104 -8.56794 1.19535 -3.92667 -9.64411 -2.98481 4.53822 7.20025 -8.008 5.05543 5.07461 10.00502
0.00368 0.57933 0.00093 177.64234 0 -4.63826 6.25138 4.6539 -1.47853 -27.2585 1.71566 2.46138 -35.00422 -72.01451 -83.28793 17.60211 50.37649 -37.11213 0.98762 13.8138 68.68142 81.90074 17.5734 -82.52607 -26.03876 3.09319 -3.01109 5.98057 -10.64636 -8.58392 1.19589 -3.9343 -9.63257 -2.95517 4.53601 7.20995 -8.01766 5.05259 5.07722 9.9952
0.00391 0.57933 0.00099 177.65108 0 -4.63862 6.23733 4.65618 -1.48832 -27.45682 1.72491 2.45467 -34.52205 -72.12565 -82.29508 17.40741 50.81833 -37.11738 0.91529 14.20394 68.54312 81.51047 17.61121 -82.57801 -26.02559 3.10653 -2.98265 5.97285 -10.67567 -8.59754 1.19276 -3.94106 -9.61332 -2.92687 4.53412 7.22506 -8.02564 5.04668 5.07901 9.97551
0.00418 0.57931 0.00105 177.64839 0 -4.63918 6.22228 4.65625 -1.50213 -27.64472 1.74109 2.45771 -32.83589 -72.1242 -81.71389 17.41841 52.02198 -36.75644 0.75818 14.74664 68.26539 80.92098 17.64173 -82.72554 -26.03224 3.13468 -2.94744 5.96656 -10.67778 -8.61593 1.19748 -3.95042 -9.60915 -2.89456 4.53188 7.23025 -8.03782 5.04799 5.08315 9.97376
0.00452 0.57926 0.00108 177.61082 0 -4.64032 6.20864 4.64932 -1.53043 -27.8098 1.7807 2.48806 -27.75719 -71.85477 -82.5919 18.0785 55.22115 -35.37624 0.39387 15.65696 67.66371 79.88511 17.65578 -83.0802 -26.10527 3.19471 -2.89569 5.96448 -10.60005 -8.64575 1.21924 -3.96538 -9.64819 -2.8557 4.52798 7.20653 -8.05698 5.06402 5.09068 10.02637
0.00489 0.57919 0.0011 177.56203 0 -4.64164 6.19304 4.6403 -1.5617 -27.96194 1.82595 2.52801 -21.4981 -71.46021 -83.85395 18.93733 59.17509 -33.63069 -0.05589 16.72242 66.91315 78.63938 17.66052 -83.53584 -26.19393 3.27057 -2.83666 5.96382 -10.49533 -8.68093 1.24991 -3.98303 -9.70244 -2.81213 4.52381 7.17267 -8.0812 5.08821 5.10101 10.09689
0.00526 0.57912 0.00113 177.51982 0 -4.64287 6.17598 4.63292 -1.58836 -28.11406 1.8651 2.56364 -15.86038 -71.09262 -84.78828 19.66739 62.79973 -32.06267 -0.47482 17.73801 66.20034 77.43887 17.66734 -83.97556 -26.2707 3.34344 -2.77985 5.96237 -10.40507 -8.71484 1.27976 -3.99997 -9.74919 -2.7684 4.52006 7.14386 -8.10592 5.11198 5.11186 10.15739
0.00559 0.57908 0.00115 177.47144 0 -4.64421 6.16972 4.62283 -1.62885 -28.29235 1.91976 2.59983 -9.85534 -70.85907 -86.35298 20.55773 66.39264 -30.4474 -0.86274 18.67298 65.6171 76.44296 17.68684 -84.29675 -26.37689 3.39871 -2.72815 5.9615 -10.30582 -8.74319 1.29585 -4.01478 -9.7981 -2.73467 4.51504 7.1138 -8.11862 5.12196 5.11527 10.22522
0.00601 0.57898 0.00118 177.43328 0 -4.64526 6.13937 4.61763 -1.64137 -28.41193 1.94288 2.63619 -4.33903 -70.30763 -86.70477 21.16108 70.20937 -28.8414 -1.33389 19.80744 64.72297 74.97653 17.67335 -84.88047 -26.41397 3.49453 -2.66338 5.95978 -10.21876 -8.78514 1.34281 -4.03474 -9.84643 -2.6785 4.51263 7.08329 -8.15785 5.16251 5.13474 10.28253
0.00664 0.57871 0.00122 177.42546 0 -4.64647 6.05226 4.62876 -1.57378 -28.37887 1.88198 2.67836 -0.45674 -68.9812 -83.5775 20.93716 74.59756 -27.37427 -2.02064 21.48754 63.06026 72.22343 17.60822 -86.22748 -26.35669 3.69516 -2.57026 5.95539 -10.17231 -8.85722 1.4719 -4.06705 -9.88718 -2.56617 4.51734 7.05919 -8.26631 5.28602 5.19849 10.30323
